<svg xmlns="http://www.w3.org/2000/svg" width="23" height="23" viewBox="0 0 23 23"><defs><style>.a{fill:#00a0e0;}.b{fill:#e7e7e7;}.c{fill:#d3d3d8;}.d{fill:#babac0;}.e{fill:#a1a1a7;}.f{fill:#384949;}.g{fill:#293939;}</style></defs><g transform="translate(0)"><path class="a" d="M23.281,60.662v6l-2,1h-19l-2-1v-6Z" transform="translate(-0.281 -58.662)"/><path class="a" d="M267.641,60.662v6l-2,1h-10v-7Z" transform="translate(-244.641 -58.662)"/><path class="b" d="M.281,181.205v15h23v-15Z" transform="translate(-0.281 -173.205)"/><rect class="c" width="12" height="15" transform="translate(11 8)"/><g transform="translate(4 11)"><path class="d" d="M94.189,246.432h-4v-4h4Z" transform="translate(-90.189 -242.432)"/><path class="d" d="M94.189,365.975h-4v-4h4Z" transform="translate(-90.189 -356.975)"/><path class="d" d="M210.687,242.432v4h4v-4Z" transform="translate(-205.687 -242.432)"/><path class="d" d="M210.687,361.975v4h4v-4Z" transform="translate(-205.687 -356.975)"/></g><g transform="translate(11 11)"><path class="e" d="M336.185,246.432h-4v-4h4Z" transform="translate(-328.185 -242.432)"/><rect class="e" width="2" height="4" transform="translate(0 0)"/><rect class="e" width="2" height="4" transform="translate(0 5)"/></g><g transform="translate(2)"><path class="f" d="M64.553,6.436h-5v-6h5Z" transform="translate(-59.553 -0.436)"/><path class="f" d="M210.687.436v6h4v-6Z" transform="translate(-203.687 -0.436)"/></g><g transform="translate(11)"><path class="g" d="M365.821,6.436h-4v-6h4Z" transform="translate(-356.821 -0.436)"/><rect class="g" width="2" height="6"/></g></g></svg>