<svg xmlns="http://www.w3.org/2000/svg" width="35" height="35.001" viewBox="0 0 35 35.001"><defs><style>.a{fill:#fff;}.b{fill:#00a0e0;}</style></defs><g transform="translate(-782 -424)"><path class="a" d="M17.333.333a16.55,16.55,0,0,0-17,17c0,9.757,7.243,18,17,18a18.242,18.242,0,0,0,18-18C35.333,7.576,27.09.333,17.333.333Z" transform="translate(781.667 423.667)"/><path class="b" d="M17.333.333a16.55,16.55,0,0,0-17,17c0,9.757,7.243,18,17,18a18.242,18.242,0,0,0,18-18C35.333,7.576,27.09.333,17.333.333Zm11,21h-7v7h-7v-7h-7v-7h7v-7h7v7h7Z" transform="translate(781.666 423.668)"/></g></svg>