<svg xmlns="http://www.w3.org/2000/svg" width="46.954" height="39" viewBox="0 0 46.954 39"><defs><style>.a{fill:#3bb9ed;}</style></defs><g transform="translate(0 -41.674)"><g transform="translate(0 41.674)"><path class="a" d="M44.315,57.492l.073.016H12.968l9.877-9.9a2.594,2.594,0,0,0,0-3.647l-1.537-1.538a2.571,2.571,0,0,0-3.629,0L.749,59.353a2.588,2.588,0,0,0,0,3.641L17.68,79.925a2.573,2.573,0,0,0,3.629,0l1.537-1.538a2.543,2.543,0,0,0,.749-1.814,2.467,2.467,0,0,0-.749-1.78l-9.989-9.954H44.35a2.661,2.661,0,0,0,2.6-2.634V60.03A2.61,2.61,0,0,0,44.315,57.492Z" transform="translate(0 -41.674)"/></g></g></svg>