<svg xmlns="http://www.w3.org/2000/svg" width="148.177" height="41.676" viewBox="0 0 148.177 41.676"><defs><style>.a{fill:#fff;}.b{fill:#3bb9ed;}.c{fill:#c6c6c6;}</style></defs><g transform="translate(-956.749 -46.992)"><path class="a" d="M68.725,27.612c0-4.9.018-9.747-.023-14.6a9.848,9.848,0,0,1,.1-1.751,1.746,1.746,0,0,1,1.716-1.494,1.832,1.832,0,0,1,1.906,1.367,2.484,2.484,0,0,1,.111,1.4,1.671,1.671,0,0,0-.007.388V32.994a1.9,1.9,0,0,1-2.9,1.721,3.47,3.47,0,0,1-.919-.85c-.968-1.125-1.919-2.268-2.885-3.4-.619-.721-1.261-1.423-1.88-2.143-.783-.912-1.55-1.839-2.328-2.753-.582-.679-1.176-1.347-1.758-2.023-.829-.968-1.649-1.942-2.481-2.908-.6-.7-1.213-1.388-1.82-2.081a7.9,7.9,0,0,0-1.021-1.113c-.15-.115-.18-.118-.243.079a1.761,1.761,0,0,0-.069.543q0,7.314,0,14.632a2.983,2.983,0,0,1-.441,1.6,2.069,2.069,0,0,1-1.991.626,1.918,1.918,0,0,1-1.455-1.993q0-10.557,0-21.109a1.916,1.916,0,0,1,1.772-2.049,1.694,1.694,0,0,1,1.522.575c.7.741,1.367,1.52,2.037,2.294.619.716,1.224,1.444,1.836,2.169.755.9,1.506,1.8,2.268,2.691.589.691,1.2,1.365,1.785,2.056.79.924,1.571,1.857,2.361,2.783.591.688,1.2,1.358,1.785,2.056.7.834,1.457,1.615,2.093,2.5A2.074,2.074,0,0,0,68.725,27.612Z" transform="translate(1008.09 38.051)"/><path class="b" d="M51.435,14.265c-.836,1.467-1.665,2.933-2.506,4.393-.947,1.649-1.906,3.289-2.853,4.938-.919,1.6-1.825,3.2-2.749,4.8-.972,1.681-1.966,3.351-2.94,5.033a3.487,3.487,0,0,1-.836,1.1,1.8,1.8,0,0,1-2.312.018,1.829,1.829,0,0,1-.568-2.331c.624-1.194,1.287-2.37,1.949-3.543.718-1.273,1.457-2.534,2.187-3.8q1.369-2.377,2.737-4.758c.73-1.266,1.444-2.541,2.19-3.795,1.016-1.707,1.922-3.478,3.01-5.139A3.114,3.114,0,0,1,51.1,9.772a3.428,3.428,0,0,1,2.61.744,4.644,4.644,0,0,1,1.074,1.474q2.051,3.53,4.1,7.065c1.035,1.792,2.053,3.6,3.086,5.393,1.411,2.46,2.864,4.9,4.236,7.38.691,1.252.4,2.859-1.483,3.123a1.61,1.61,0,0,1-1.548-.735,35.567,35.567,0,0,1-2-3.312q-1.22-2.1-2.432-4.2-1.064-1.84-2.123-3.689c-.857-1.487-1.718-2.97-2.568-4.462-.771-1.356-1.52-2.723-2.365-4.037A.686.686,0,0,0,51.435,14.265Z" transform="translate(989.923 38.039)"/><path class="b" d="M27.4,11.663a1.764,1.764,0,0,1,1.291-1.809,1.728,1.728,0,0,1,2.07.661c.7.961,1.263,2.016,1.869,3.042.945,1.6,1.866,3.213,2.792,4.825.734,1.277,1.462,2.561,2.2,3.843q1.33,2.325,2.665,4.652c.587,1.021,1.159,2.049,1.76,3.063.263.446.309.443.631.069a13.393,13.393,0,0,0,1.215-2.044c.818-1.4,1.626-2.8,2.437-4.2s1.6-2.779,2.4-4.167q1.265-2.193,2.529-4.388,1.071-1.86,2.134-3.73a3.114,3.114,0,0,1,1.448-1.615,2.027,2.027,0,0,1,2.056.464,1.967,1.967,0,0,1,.356,2.148,30.034,30.034,0,0,1-1.559,2.827c-.7,1.263-1.439,2.511-2.16,3.765q-1.2,2.082-2.4,4.167Q50.05,25.1,48.972,26.96q-1.289,2.228-2.568,4.462a23.7,23.7,0,0,1-1.226,2.093,3.23,3.23,0,0,1-3.217,1.372A3.632,3.632,0,0,1,39.1,32.732c-1.1-1.924-2.21-3.836-3.31-5.756-1.026-1.783-2.035-3.575-3.063-5.359-1.282-2.224-2.575-4.442-3.86-6.666-.411-.711-.808-1.432-1.206-2.155A2.027,2.027,0,0,1,27.4,11.663Z" transform="translate(978.039 38.054)"/><path class="a" d="M24.773,22.687c-1.425-.811-2.832-1.608-4.234-2.411-1.707-.979-3.407-1.97-5.116-2.947-1.441-.825-2.892-1.633-4.333-2.46C9.806,14.134,8.52,13.4,7.256,12.631a1.764,1.764,0,0,1-.776-2.277A1.789,1.789,0,0,1,9,9.639c.979.471,1.9,1.06,2.848,1.6q1.673.953,3.344,1.915c1.524.875,3.044,1.76,4.573,2.631,1.3.741,2.6,1.464,3.9,2.206,1.321.755,2.642,1.508,3.95,2.287a2.577,2.577,0,0,1,1.217,2.014,3.077,3.077,0,0,1-1.021,2.878,7.612,7.612,0,0,1-1.347.758q-3.416,2-6.853,3.968c-1.924,1.1-3.862,2.187-5.79,3.284-1.615.917-3.208,1.873-4.86,2.723a1.73,1.73,0,0,1-2.5-.771,1.816,1.816,0,0,1,.889-2.3c2-1.136,4-2.3,5.994-3.441q2.8-1.6,5.6-3.194c1.758-1,3.508-2.016,5.271-3.017A4.206,4.206,0,0,0,24.773,22.687Z" transform="translate(950.435 37.592)"/><path class="a" d="M70.032,23.8q0-4.639,0-9.278c0-.716-.159-.88-.894-.88-2.1.007-4.2.023-6.3,0a1.916,1.916,0,0,1-.413-3.8,3.355,3.355,0,0,1,.8-.081q8.845,0,17.693.007A1.918,1.918,0,0,1,82.865,10.9a1.894,1.894,0,0,1-1.691,2.725c-2.113.058-4.229.018-6.343.012-.76,0-.917.159-.917.9q.007,9.171.007,18.342a2.02,2.02,0,0,1-2.051,2.093,1.841,1.841,0,0,1-1.832-1.857C70.023,30.009,70.032,26.9,70.032,23.8Z" transform="translate(1021.891 38.054)"/><path class="a" d="M27.989,13.642c-3.063,0-6.125-.012-9.188.009a1.869,1.869,0,0,1-1.834-1.642,1.937,1.937,0,0,1,1.393-2.16,3.619,3.619,0,0,1,.838-.1c5.938.007,11.877,0,17.815.012a1.923,1.923,0,0,1,2.127,2.03,1.774,1.774,0,0,1-1.878,1.843C34.172,13.655,31.079,13.642,27.989,13.642Z" transform="translate(964.366 38.052)"/><path class="a" d="M28.131,18.953c3.049,0,6.1.012,9.147-.007a1.838,1.838,0,0,1,1.864,1.739,1.92,1.92,0,0,1-1.478,2.074,3.1,3.1,0,0,1-.711.079c-5.982,0-11.964.012-17.947-.007a1.958,1.958,0,0,1-1.788-2.959,1.684,1.684,0,0,1,1.6-.917Q23.473,18.948,28.131,18.953Z" transform="translate(964.365 50.094)"/><path class="a" d="M28.009,18.238c-3.049,0-6.1-.016-9.147.009a1.833,1.833,0,0,1-1.79-1.273,1.875,1.875,0,0,1,.741-2.273,1.928,1.928,0,0,1,1.139-.349q9.1,0,18.21.007a1.919,1.919,0,0,1,1.961,1.575,1.992,1.992,0,0,1-.88,2.042,2.061,2.061,0,0,1-.956.263Q32.648,18.234,28.009,18.238Z" transform="translate(964.369 44.075)"/><path class="c" d="M24.685,26.448c-.656,1.344-1.263,2.587-1.871,3.83-.018.037-.021.085-.046.115-.085.1-.058.316-.233.316-.143,0-.169-.182-.222-.291-.6-1.19-1.192-2.381-1.785-3.575-.049-.1-.1-.189-.189-.342-.157,1.307-.307,2.55-.46,3.793-.012.095-.062.187-.079.284-.046.256-.247.146-.379.146-.208,0-.141-.171-.125-.289q.159-1.24.328-2.481c.139-1.019.282-2.037.51-3.077l2.379,4.839,2.379-4.867a2.279,2.279,0,0,1,.238,1.129c.217,1.5.363,3,.612,4.495.018.106.046.259-.134.249-.132-.007-.333.118-.374-.148-.083-.529-.182-1.058-.252-1.589C24.879,28.188,24.793,27.384,24.685,26.448Z" transform="translate(967.407 57.826)"/><path class="c" d="M54.675,27.772c0-.85.009-1.7,0-2.545,0-.261.042-.39.346-.374a11.915,11.915,0,0,1,2.511.166,2.5,2.5,0,0,1,1.855,1.843,3.29,3.29,0,0,1-.376,2.779,2.447,2.447,0,0,1-2.095,1.083c-.617.032-1.238-.009-1.855.012-.3.012-.395-.065-.388-.376C54.691,29.5,54.675,28.634,54.675,27.772Zm.52-.021c0,.688,0,1.379,0,2.07,0,.132-.051.3.185.3A8.234,8.234,0,0,0,57.511,30a2.169,2.169,0,0,0,1.474-2.515,2.109,2.109,0,0,0-1.654-1.869,8.375,8.375,0,0,0-1.776-.159c-.275-.007-.379.06-.367.353C55.209,26.458,55.195,27.1,55.195,27.751Z" transform="translate(1013.765 57.828)"/><path class="c" d="M36.3,28.318c0-.7-.012-1.411,0-2.116,0-.247-.074-.344-.319-.31a.352.352,0,0,1-.085,0c-.619,0-.8-.266-.64-.889.044-.171.155-.143.261-.143.892,0,1.783,0,2.675-.007.215,0,.284.081.261.279a.743.743,0,0,0,0,.215c.081.453-.109.626-.552.547-.388-.069-.506.079-.5.48.028,1.307,0,2.617.018,3.927,0,.321-.06.45-.418.437-.711-.028-.711,0-.711-.739Z" transform="translate(988.281 57.83)"/><path class="c" d="M29.445,27.795c0-.862,0-1.725,0-2.587,0-.243.03-.363.319-.356.892.018,1.783.014,2.675,0,.224,0,.3.062.3.291s-.053.328-.31.323c-.7-.016-1.409.009-2.111-.012-.293-.009-.37.09-.356.365a11.514,11.514,0,0,1,0,1.164c-.009.226.065.3.293.293.718-.012,1.437,0,2.155-.007.233,0,.328.049.328.3s-.092.312-.326.307c-.7-.012-1.411.007-2.113-.009-.268-.007-.349.069-.34.337q.031.776,0,1.552c-.009.273.06.376.353.367.7-.021,1.409,0,2.113-.012.254-.007.31.088.31.321s-.072.3-.3.293c-.889-.012-1.781-.018-2.672,0-.289,0-.326-.113-.321-.356C29.452,29.52,29.445,28.656,29.445,27.795Z" transform="translate(980.723 57.829)"/><path class="c" d="M52.058,27.786c0-.862.009-1.725,0-2.587,0-.254.051-.353.328-.346.878.018,1.755.012,2.631,0,.224,0,.33.032.337.3.007.3-.132.319-.363.314-.691-.009-1.381.007-2.072-.009-.252,0-.363.051-.344.33a9.788,9.788,0,0,1,0,1.164c-.018.279.092.335.344.33.691-.016,1.381,0,2.072-.009.231,0,.363.016.363.314,0,.319-.169.3-.379.3-.677,0-1.351.007-2.028-.007-.261-.007-.388.039-.374.346.025.529.018,1.062,0,1.594-.007.249.074.319.316.314.7-.014,1.409,0,2.113-.007.208,0,.346,0,.349.284s-.1.33-.351.328q-1.317-.021-2.631,0c-.247,0-.319-.076-.314-.319C52.065,29.541,52.058,28.663,52.058,27.786Z" transform="translate(1010.34 57.829)"/><path class="c" d="M47.449,30.872a2.7,2.7,0,0,1-2.3-1.633,2.954,2.954,0,0,1,.194-3.139,3.23,3.23,0,0,1,3.841-1.032,3.5,3.5,0,0,1,1.081.737c.192.192.1.286-.046.39-.12.083-.206.252-.4.014a2.593,2.593,0,0,0-3.414-.423,2.511,2.511,0,0,0-.515,3.666,2.6,2.6,0,0,0,3.555.363c.1-.088.24-.134.312-.275.141-.284.314-.185.5-.023.15.129.162.208.009.363A3.54,3.54,0,0,1,47.449,30.872Z" transform="translate(1000.828 57.78)"/><path class="c" d="M53.947,29.7a3.255,3.255,0,0,1-4.081.785,3.061,3.061,0,0,1-.744-4.675,3.32,3.32,0,0,1,4.2-.453,3.019,3.019,0,0,1,.409.381c.148.139.309.249.046.453-.219.169-.284.12-.478-.079a2.61,2.61,0,0,0-3.342-.335,2.5,2.5,0,0,0-.531,3.661,2.617,2.617,0,0,0,3.557.386c.076-.062.162-.113.236-.18C53.6,29.3,53.6,29.3,53.947,29.7Z" transform="translate(1005.492 57.783)"/><path class="c" d="M28.453,30.745c-.383.085-.6.028-.711-.353-.127-.43-.353-.829-.522-1.247a.391.391,0,0,0-.425-.273q-.97.021-1.94,0a.393.393,0,0,0-.42.279c-.173.4-.381.79-.543,1.2-.141.351-.333.552-.755.381l2.776-5.913Zm-2.561-4.682-1.023,2.185h1.961Z" transform="translate(972.467 57.782)"/><path class="c" d="M30.713,30.664a1,1,0,0,1-1.139-.312c-.762-.8-1.557-1.568-2.416-2.428,0,.885,0,1.679,0,2.474,0,.141.069.326-.2.337-.24.009-.323-.058-.321-.31.009-1.755.007-3.511,0-5.266,0-.208.032-.312.277-.307s.247.12.245.3c0,.631,0,1.259,0,1.954a21.131,21.131,0,0,0,2.028-1.832A1.071,1.071,0,0,1,30.3,24.89c-.092.245-.344.333-.517.5-.686.668-1.384,1.321-2.118,1.933-.206.171-.146.282.016.441.871.859,1.732,1.728,2.6,2.589A3.987,3.987,0,0,0,30.713,30.664Z" transform="translate(977.051 57.828)"/><path class="c" d="M45.087,27.056c0-.633.007-1.266,0-1.9,0-.215.044-.307.282-.3s.24.129.24.3c0,1.222.025,2.446-.009,3.668A1.851,1.851,0,1,1,41.9,29c-.037-1.28,0-2.561-.012-3.843,0-.21.039-.309.282-.3s.24.125.24.3c0,1.252,0,2.5,0,3.756a1.294,1.294,0,0,0,1.24,1.39,1.348,1.348,0,0,0,1.432-1.344C45.094,28.321,45.087,27.688,45.087,27.056Z" transform="translate(997.022 57.829)"/><path class="c" d="M34.828,27.793c0,.862-.012,1.723.007,2.585.007.286-.081.363-.36.36-.767-.007-.767.007-.767-.767,0-1.58.007-3.16-.009-4.74,0-.3.085-.386.386-.379.744.014.744,0,.744.744Z" transform="translate(986.302 57.829)"/><path class="c" d="M40.893,24.817a1.746,1.746,0,0,1,1.367.67c.074.085.2.171.035.259-.148.079-.236.353-.48.162-.208-.162-.33-.416-.624-.5a.856.856,0,0,0-1.109.349c-.229.413-.053.783.326,1.12.508.45,1.116.781,1.584,1.28a1.5,1.5,0,0,1,.349,1.788,1.542,1.542,0,0,1-1.582.912,1.891,1.891,0,0,1-1.538-1.1c-.136-.247.132-.256.226-.349s.229-.115.289.072a1.327,1.327,0,0,0,.409.54,1.046,1.046,0,0,0,1.58-.072.947.947,0,0,0-.109-1.4c-.5-.55-1.187-.88-1.7-1.425a1.263,1.263,0,0,1-.37-1.386A1.355,1.355,0,0,1,40.893,24.817Z" transform="translate(993.484 57.783)"/></g></svg>