<svg xmlns="http://www.w3.org/2000/svg" width="38.211" height="39.721" viewBox="0 0 38.211 39.721"><defs><style>.a{fill:#423c40;}.b{fill:#00a0e0;}.c{fill:#f2f2f2;}.d{fill:#182652;}</style></defs><g transform="translate(0)"><path class="a" d="M314.5,312.514l-2.884,2-1.922-2,1.922-3Z" transform="translate(-286.065 -284.969)"/><path class="b" d="M329.883,330.252h0a4.126,4.126,0,0,1-5.768,0l-7.69-8,5.768-6,7.69,8A4.549,4.549,0,0,1,329.883,330.252Z" transform="translate(-292.801 -291.707)"/><path class="a" d="M25.774,4.512a14.571,14.571,0,0,0-21.148,0,15.952,15.952,0,0,0,0,22,14.571,14.571,0,0,0,21.148,0A16.031,16.031,0,0,0,25.774,4.512Z" transform="translate(-0.227 0.034)"/><path class="c" d="M62.465,64.452a11.165,11.165,0,0,1-16.341,0c-4.6-4.7-4.6-13.3,0-18s12.784-3.783,17.3,1C67.945,52.152,67.063,59.752,62.465,64.452Z" transform="translate(-39.802 -39.906)"/><path class="d" d="M321.231,316.251l-5.767,6,2.884,2,4.806-5Z" transform="translate(-291.839 -291.706)"/></g></svg>