<svg xmlns="http://www.w3.org/2000/svg" width="30.085" height="30" viewBox="0 0 30.085 30"><defs><style>.a{fill:#00a0e0;}.b{fill:#54c0eb;}</style></defs><path class="a" d="M28.043,11.538a12.872,12.872,0,0,0-1.2-2.991l1.026-2.393-3.59-3.5L21.89,3.675a11.531,11.531,0,0,0-2.991-1.2L18.043,0H13l-.94,2.479a12.872,12.872,0,0,0-2.991,1.2L6.676,2.65l-3.5,3.5L4.2,8.547A11.531,11.531,0,0,0,3,11.538l-2.479.94v5.043L3,18.462a12.872,12.872,0,0,0,1.2,2.991L3.172,23.846l3.59,3.5,2.393-1.026a11.531,11.531,0,0,0,2.991,1.2L13.086,30h4.957l.94-2.479a12.872,12.872,0,0,0,2.991-1.2l2.393,1.026,3.59-3.5-1.026-2.393a11.531,11.531,0,0,0,1.2-2.991l2.479-.94V12.479ZM15.479,21.111a6.154,6.154,0,1,1,6.154-6.154A6.128,6.128,0,0,1,15.479,21.111Z" transform="translate(-0.522)"/><g transform="translate(5.769 5.769)"><path class="b" d="M114.822,114.3a6.087,6.087,0,0,1-8.633,0l-2.222,2.222a9.247,9.247,0,0,0,13.077-13.077l-2.222,2.222A6.087,6.087,0,0,1,114.822,114.3Z" transform="translate(-101.275 -100.753)"/><path class="b" d="M73.745,73.223a9.286,9.286,0,0,0,0,13.077l2.222-2.222A6.1,6.1,0,0,1,84.6,75.445l2.222-2.222A9.286,9.286,0,0,0,73.745,73.223Z" transform="translate(-71.053 -70.531)"/></g></svg>