<svg xmlns="http://www.w3.org/2000/svg" width="23.793" height="30" viewBox="0 0 23.793 30"><defs><style>.a{fill:#b8bdc1;}.b{fill:#e6e7e8;}.c{fill:#00a0e0;}.d{fill:#d70070;}</style></defs><g transform="translate(0)"><path class="a" d="M75.725,110.07H54a1.034,1.034,0,0,1-1.034-1.034v-2.069A1.034,1.034,0,0,1,54,105.932H75.725a1.034,1.034,0,0,1,1.034,1.034v2.069a1.034,1.034,0,0,1-1.035,1.034" transform="translate(-52.966 -99.725)"/><path class="b" d="M76.506,176.552l2.245,18.707a1.035,1.035,0,0,0,1.031.949H94.264a1.034,1.034,0,0,0,1.031-.949l2.245-18.707Z" transform="translate(-75.127 -166.207)"/><g transform="translate(1.557 2.675)"><path class="c" d="M88.834,56.069l-.547-3.1-8.744,1.683.251,1.421Z" transform="translate(-79.542 -52.537)"/><path class="c" d="M305.254,49.179l.433-2.454-6.724-1.078-.623,3.532Z" transform="translate(-285.52 -45.647)"/></g><path class="d" d="M177.6,0,167.23.883l.3,2.856,3.3-.636.547,3.1h3.528l.623-3.532,2.391.383Z" transform="translate(-160.535)"/><g transform="translate(3.344 12.931)"><path class="a" d="M111.347,445.517H125.83a1.034,1.034,0,0,0,1.031-.949l.28-3.189H110.036l.28,3.189a1.034,1.034,0,0,0,1.031.949" transform="translate(-110.036 -428.448)"/><path class="a" d="M247.689,231.034a.517.517,0,0,1-.517-.517v-9.31a.517.517,0,1,1,1.035,0v9.31a.517.517,0,0,1-.517.517" transform="translate(-239.137 -220.689)"/><path class="a" d="M153.305,231.3a.517.517,0,0,1-.515-.472l-.811-9.275a.517.517,0,1,1,1.03-.09l.811,9.275a.517.517,0,0,1-.47.56l-.046,0" transform="translate(-149.52 -220.968)"/><path class="a" d="M329.045,231.3l-.046,0a.517.517,0,0,1-.47-.56l.811-9.275a.517.517,0,0,1,1.03.09l-.811,9.275a.517.517,0,0,1-.515.472" transform="translate(-315.725 -220.969)"/></g></g></svg>